<svg width="149" height="19" viewBox="0 0 149 19" fill="none" xmlns="http://www.w3.org/2000/svg">
<path d="M0.874023 6.36487L7.96321 18.6375L15.0524 15.5454L22.0938 18.5177C20.6378 15.881 17.4298 10.1905 16.2459 8.52217C15.0619 6.85386 12.9042 6.38884 11.9733 6.36487H0.874023Z" fill="#8CA4FF"/>
<path d="M17.2719 2.43377L7.96289 18.6375L15.0521 15.5454L22.0935 18.5177L32.7392 0.0847046C30.0738 0.0207845 24.1224 -0.0687036 21.64 0.0847046C19.1576 0.238113 17.6936 1.71467 17.2719 2.43377Z" fill="#3A57E8" fill-opacity="0.8"/>
<path d="M40.858 16L38.017 5.09091H41.5043L42.9744 12.0795H43.0668L44.6435 5.09091H48.0455L49.6648 12.0298H49.7571L51.1847 5.09091H54.6719L51.8239 16H48.1094L46.4048 9.64347H46.2841L44.5795 16H40.858ZM56.0657 16V1.45455H59.5387V6.95881H59.6097C59.7518 6.62737 59.953 6.30777 60.2134 6C60.4786 5.69223 60.8147 5.44129 61.2219 5.24716C61.6339 5.0483 62.1263 4.94886 62.6992 4.94886C63.4568 4.94886 64.1647 5.14773 64.8228 5.54545C65.4857 5.94318 66.0207 6.55634 66.4279 7.38494C66.8351 8.21354 67.0387 9.26941 67.0387 10.5526C67.0387 11.7884 66.8422 12.8229 66.4492 13.6562C66.061 14.4896 65.5354 15.1146 64.8725 15.5312C64.2144 15.9479 63.4828 16.1562 62.6779 16.1562C62.1287 16.1562 61.6528 16.0663 61.2504 15.8864C60.8479 15.7064 60.5094 15.4697 60.2347 15.1761C59.9648 14.8826 59.7565 14.5677 59.6097 14.2315H59.5032V16H56.0657ZM59.4677 10.5455C59.4677 11.1326 59.5458 11.6439 59.7021 12.0795C59.863 12.5152 60.0927 12.8537 60.391 13.0952C60.694 13.3319 61.0562 13.4503 61.4776 13.4503C61.9038 13.4503 62.266 13.3319 62.5643 13.0952C62.8626 12.8537 63.0875 12.5152 63.239 12.0795C63.3952 11.6439 63.4734 11.1326 63.4734 10.5455C63.4734 9.95833 63.3952 9.44934 63.239 9.01847C63.0875 8.58759 62.8626 8.25379 62.5643 8.01705C62.2707 7.7803 61.9085 7.66193 61.4776 7.66193C61.0515 7.66193 60.6893 7.77794 60.391 8.00994C60.0927 8.24195 59.863 8.57339 59.7021 9.00426C59.5458 9.43513 59.4677 9.94886 59.4677 10.5455ZM75.897 11.2912V5.09091H79.3629V16H76.0533V13.9688H75.9396C75.6982 14.6364 75.2862 15.1667 74.7038 15.5597C74.1262 15.9479 73.4278 16.142 72.6087 16.142C71.8653 16.142 71.2119 15.9716 70.6484 15.6307C70.085 15.2898 69.647 14.8139 69.3345 14.2031C69.022 13.5876 68.8634 12.8679 68.8587 12.044V5.09091H72.3317V11.3622C72.3364 11.9541 72.4927 12.4205 72.8004 12.7614C73.1082 13.1023 73.5272 13.2727 74.0575 13.2727C74.4032 13.2727 74.7133 13.197 74.9879 13.0455C75.2673 12.8892 75.4875 12.6643 75.6484 12.3707C75.8142 12.0724 75.897 11.7126 75.897 11.2912ZM81.5735 16V5.09091H85.0465V16H81.5735ZM83.3136 3.8196C82.8259 3.8196 82.4068 3.65862 82.0565 3.33665C81.7061 3.00994 81.5309 2.61695 81.5309 2.15767C81.5309 1.70312 81.7061 1.31487 82.0565 0.992898C82.4068 0.666193 82.8259 0.50284 83.3136 0.50284C83.806 0.50284 84.225 0.666193 84.5707 0.992898C84.921 1.31487 85.0962 1.70312 85.0962 2.15767C85.0962 2.61695 84.921 3.00994 84.5707 3.33665C84.225 3.65862 83.806 3.8196 83.3136 3.8196ZM90.7301 1.45455V16H87.2571V1.45455H90.7301ZM96.9251 16.1562C96.1201 16.1562 95.3886 15.9479 94.7305 15.5312C94.0723 15.1146 93.5468 14.4896 93.1538 13.6562C92.7608 12.8229 92.5643 11.7884 92.5643 10.5526C92.5643 9.26941 92.7679 8.21354 93.1751 7.38494C93.5823 6.55634 94.1149 5.94318 94.7731 5.54545C95.436 5.14773 96.1486 4.94886 96.9109 4.94886C97.4838 4.94886 97.9738 5.0483 98.381 5.24716C98.7882 5.44129 99.1244 5.69223 99.3896 6C99.6547 6.30777 99.8559 6.62737 99.9933 6.95881H100.064V1.45455H103.537V16H100.1V14.2315H99.9933C99.8465 14.5677 99.6381 14.8826 99.3683 15.1761C99.0984 15.4697 98.7598 15.7064 98.3526 15.8864C97.9502 16.0663 97.4743 16.1562 96.9251 16.1562ZM98.1325 13.4503C98.5539 13.4503 98.9137 13.3319 99.212 13.0952C99.5103 12.8537 99.7399 12.5152 99.9009 12.0795C100.062 11.6439 100.142 11.1326 100.142 10.5455C100.142 9.94886 100.062 9.43513 99.9009 9.00426C99.7447 8.57339 99.515 8.24195 99.212 8.00994C98.9137 7.77794 98.5539 7.66193 98.1325 7.66193C97.7016 7.66193 97.337 7.7803 97.0387 8.01705C96.7404 8.25379 96.5131 8.58759 96.3569 9.01847C96.2054 9.44934 96.1296 9.95833 96.1296 10.5455C96.1296 11.1326 96.2077 11.6439 96.364 12.0795C96.5202 12.5152 96.7451 12.8537 97.0387 13.0952C97.337 13.3319 97.7016 13.4503 98.1325 13.4503ZM110.833 16.206C109.692 16.206 108.707 15.9811 107.879 15.5312C107.055 15.0767 106.42 14.4304 105.975 13.5923C105.535 12.7495 105.315 11.7481 105.315 10.5881C105.315 9.46117 105.537 8.47633 105.982 7.63352C106.427 6.78598 107.055 6.12784 107.864 5.65909C108.674 5.18561 109.628 4.94886 110.727 4.94886C111.503 4.94886 112.213 5.0696 112.857 5.31108C113.501 5.55256 114.058 5.91004 114.526 6.38352C114.995 6.85701 115.36 7.44176 115.62 8.13778C115.88 8.82907 116.011 9.62216 116.011 10.517V11.3835H106.529V9.36648H112.779C112.774 8.99716 112.687 8.66809 112.516 8.37926C112.346 8.09044 112.112 7.86553 111.813 7.70455C111.52 7.53883 111.181 7.45597 110.798 7.45597C110.409 7.45597 110.061 7.54356 109.754 7.71875C109.446 7.8892 109.202 8.12358 109.022 8.42188C108.842 8.71544 108.747 9.04924 108.738 9.4233V11.4759C108.738 11.9209 108.826 12.3116 109.001 12.6477C109.176 12.9792 109.424 13.2372 109.746 13.4219C110.068 13.6065 110.452 13.6989 110.897 13.6989C111.205 13.6989 111.484 13.6562 111.735 13.571C111.986 13.4858 112.201 13.3603 112.381 13.1946C112.561 13.0289 112.696 12.8253 112.786 12.5838L115.975 12.6761C115.843 13.3911 115.551 14.0137 115.102 14.544C114.656 15.0696 114.072 15.4792 113.347 15.7727C112.623 16.0616 111.785 16.206 110.833 16.206ZM117.784 16V5.09091H121.158V7.07955H121.272C121.471 6.35985 121.795 5.82481 122.245 5.47443C122.694 5.11932 123.218 4.94176 123.814 4.94176C123.975 4.94176 124.141 4.9536 124.311 4.97727C124.482 4.99621 124.641 5.02699 124.787 5.0696V8.08807C124.622 8.03125 124.404 7.98627 124.134 7.95312C123.869 7.91998 123.632 7.90341 123.424 7.90341C123.012 7.90341 122.64 7.99574 122.309 8.1804C121.982 8.36032 121.724 8.61364 121.534 8.94034C121.35 9.26231 121.257 9.6411 121.257 10.0767V16H117.784ZM126.906 16.206C126.394 16.206 125.956 16.026 125.592 15.6662C125.232 15.3063 125.054 14.8707 125.059 14.3594C125.054 13.8575 125.232 13.429 125.592 13.0739C125.956 12.714 126.394 12.5341 126.906 12.5341C127.388 12.5341 127.815 12.714 128.184 13.0739C128.558 13.429 128.747 13.8575 128.752 14.3594C128.747 14.7003 128.657 15.0104 128.482 15.2898C128.312 15.5691 128.087 15.7917 127.808 15.9574C127.533 16.1231 127.232 16.206 126.906 16.206ZM131.046 16V5.09091H134.519V16H131.046ZM132.786 3.8196C132.299 3.8196 131.879 3.65862 131.529 3.33665C131.179 3.00994 131.004 2.61695 131.004 2.15767C131.004 1.70312 131.179 1.31487 131.529 0.992898C131.879 0.666193 132.299 0.50284 132.786 0.50284C133.279 0.50284 133.698 0.666193 134.043 0.992898C134.394 1.31487 134.569 1.70312 134.569 2.15767C134.569 2.61695 134.394 3.00994 134.043 3.33665C133.698 3.65862 133.279 3.8196 132.786 3.8196ZM141.822 16.206C140.676 16.206 139.691 15.9716 138.868 15.5028C138.048 15.0294 137.416 14.3712 136.971 13.5284C136.531 12.6809 136.311 11.6984 136.311 10.581C136.311 9.45881 136.531 8.47633 136.971 7.63352C137.416 6.78598 138.048 6.12784 138.868 5.65909C139.691 5.18561 140.676 4.94886 141.822 4.94886C142.968 4.94886 143.95 5.18561 144.77 5.65909C145.593 6.12784 146.225 6.78598 146.666 7.63352C147.111 8.47633 147.333 9.45881 147.333 10.581C147.333 11.6984 147.111 12.6809 146.666 13.5284C146.225 14.3712 145.593 15.0294 144.77 15.5028C143.95 15.9716 142.968 16.206 141.822 16.206ZM141.843 13.5852C142.26 13.5852 142.613 13.4574 142.902 13.2017C143.19 12.946 143.411 12.5909 143.562 12.1364C143.718 11.6818 143.797 11.1562 143.797 10.5597C143.797 9.9536 143.718 9.4233 143.562 8.96875C143.411 8.5142 143.19 8.15909 142.902 7.90341C142.613 7.64773 142.26 7.51989 141.843 7.51989C141.413 7.51989 141.048 7.64773 140.75 7.90341C140.456 8.15909 140.231 8.5142 140.075 8.96875C139.923 9.4233 139.848 9.9536 139.848 10.5597C139.848 11.1562 139.923 11.6818 140.075 12.1364C140.231 12.5909 140.456 12.946 140.75 13.2017C141.048 13.4574 141.413 13.5852 141.843 13.5852Z" fill="#4A66ED"/>
</svg>
