<svg width="14" height="11" viewBox="0 0 14 11" fill="none" xmlns="http://www.w3.org/2000/svg">
<path fill-rule="evenodd" clip-rule="evenodd" d="M12.4604 3.23272C12.8671 3.23272 13.1337 3.37272 13.4004 3.67939C13.6671 3.98606 13.7137 4.42606 13.6537 4.82539L13.0204 9.19873C12.9004 10.0394 12.1804 10.6587 11.3337 10.6587H4.06041C3.17375 10.6587 2.44041 9.97873 2.36708 9.0994L1.75375 1.83206L0.74708 1.65872C0.480413 1.61206 0.293747 1.35206 0.340413 1.08539C0.38708 0.812057 0.64708 0.632058 0.920413 0.672058L2.51041 0.912057C2.73708 0.952724 2.90375 1.13872 2.92375 1.36539L3.05041 2.85872C3.07041 3.07272 3.24375 3.23272 3.45708 3.23272H12.4604ZM8.42039 6.69873H10.2671C10.5471 6.69873 10.7671 6.47206 10.7671 6.19873C10.7671 5.91873 10.5471 5.69873 10.2671 5.69873H8.42039C8.14039 5.69873 7.92039 5.91873 7.92039 6.19873C7.92039 6.47206 8.14039 6.69873 8.42039 6.69873Z" fill="#8A92A6"/>
</svg>
