<svg width="76" height="76" viewBox="0 0 76 76" fill="none" xmlns="http://www.w3.org/2000/svg">
<path opacity="0.4" d="M51.7202 69.6666H24.2759C13.5432 69.6666 6.33301 62.1392 6.33301 50.9336V25.0696C6.33301 13.864 13.5432 6.33331 24.2759 6.33331H51.7234C62.4562 6.33331 69.6663 13.864 69.6663 25.0696V50.9336C69.6663 62.1392 62.4562 69.6666 51.7202 69.6666Z" fill="#8A92A6"/>
<path fill-rule="evenodd" clip-rule="evenodd" d="M35.6098 27.4707C35.6098 31.8092 32.079 35.34 27.7406 35.34C23.3991 35.34 19.8715 31.8092 19.8715 27.4707C19.8715 23.1324 23.3991 19.5984 27.7406 19.5984C32.079 19.5984 35.6098 23.1324 35.6098 27.4707ZM61.4352 44.6107C62.1731 45.3264 62.7019 46.1434 63.0502 47.0142C64.1047 49.6489 63.5569 52.8156 62.4296 55.4249C61.0932 58.5314 58.5346 60.8779 55.3109 61.9039C53.8796 62.3631 52.3786 62.5594 50.8807 62.5594H24.3409C21.6999 62.5594 19.3629 61.9451 17.4471 60.7924C16.2469 60.0704 16.0347 58.4079 16.9246 57.3249C18.4129 55.5199 19.8822 53.7086 21.3642 51.8814C24.1889 48.3854 26.0921 47.3721 28.2074 48.2619C29.0656 48.6292 29.9269 49.1834 30.8136 49.7661C33.1759 51.3304 36.4597 53.4774 40.7854 51.1467C43.7421 49.5298 45.4584 46.7631 46.9525 44.3552L46.9826 44.3067C47.0829 44.1456 47.1827 43.9844 47.2821 43.8238C47.7901 43.003 48.2904 42.1946 48.8572 41.4504C49.5602 40.5289 52.1696 37.6472 55.5421 39.6992C57.6922 40.9912 59.5004 42.7392 61.4352 44.6107Z" fill="#8A92A6"/>
</svg>
