<svg width="32" height="32" viewBox="0 0 32 32" fill="none" xmlns="http://www.w3.org/2000/svg">
<circle cx="16" cy="16" r="16" fill="#F5F6FA"/>
<path opacity="0.4" fill-rule="evenodd" clip-rule="evenodd" d="M11.9404 21.7257C11.9404 21.1657 12.3938 20.7124 12.9538 20.7124C13.5071 20.7124 13.9604 21.1657 13.9604 21.7257C13.9604 22.2791 13.5071 22.7324 12.9538 22.7324C12.3938 22.7324 11.9404 22.2791 11.9404 21.7257ZM19.4404 21.7257C19.4404 21.1657 19.8937 20.7124 20.4537 20.7124C21.0071 20.7124 21.4604 21.1657 21.4604 21.7257C21.4604 22.2791 21.0071 22.7324 20.4537 22.7324C19.8937 22.7324 19.4404 22.2791 19.4404 21.7257Z" fill="#8A92A6"/>
<path fill-rule="evenodd" clip-rule="evenodd" d="M21.4604 12.2327C21.8671 12.2327 22.1337 12.3727 22.4004 12.6794C22.6671 12.9861 22.7137 13.4261 22.6537 13.8254L22.0204 18.1987C21.9004 19.0394 21.1804 19.6587 20.3337 19.6587H13.0604C12.1737 19.6587 11.4404 18.9787 11.3671 18.0994L10.7537 10.8321L9.74708 10.6587C9.48041 10.6121 9.29375 10.3521 9.34041 10.0854C9.38708 9.81206 9.64708 9.63206 9.92041 9.67206L11.5104 9.91206C11.7371 9.95272 11.9037 10.1387 11.9237 10.3654L12.0504 11.8587C12.0704 12.0727 12.2437 12.2327 12.4571 12.2327H21.4604ZM17.4204 15.6987H19.2671C19.5471 15.6987 19.7671 15.4721 19.7671 15.1987C19.7671 14.9187 19.5471 14.6987 19.2671 14.6987H17.4204C17.1404 14.6987 16.9204 14.9187 16.9204 15.1987C16.9204 15.4721 17.1404 15.6987 17.4204 15.6987Z" fill="#8A92A6"/>
</svg>
